<svg xmlns="http://www.w3.org/2000/svg" viewBox="0 0 270 270"><defs><style>.cls-1{fill:#213080}</style></defs><g id="Layer_2" data-name="Layer 2"><g id="Layer_1-2" data-name="Layer 1"><path class="cls-1" d="M117.88 135V17.12L135 0a135 135 0 01128.42 93.28l.84 5.28-11.83 16.29-112.14 36.44z"/><path class="cls-1" d="M17.57 114.85l-11-21.57A135.06 135.06 0 01135 0l17.12 17.12V135l-22.41 16.29z"/><path class="cls-1" d="M55.63 244.22A135.16 135.16 0 016.58 93.28l21.57-11 112.14 36.43 8.56 26.35-69.29 95.38z"/><path class="cls-1" d="M135 270a134.07 134.07 0 01-79.37-25.78l-3.78-23.91 69.3-95.37h27.7l69.3 95.37-3.78 23.91A134.07 134.07 0 01135 270z"/><path class="cls-1" d="M190.44 240.44l-69.29-95.37 8.56-26.35 112.14-36.43 21.57 11a135.33 135.33 0 01-8.61 104 136.07 136.07 0 01-40.44 47z"/><path d="M247.14 98.56L135 135V17.12a117.93 117.93 0 01112.14 81.44z" fill="#ff397f"/><path d="M135 17.12V135L22.86 98.57A117.92 117.92 0 01135 17.12z" fill="#3153cb"/><path d="M135 135l-69.29 95.37a118 118 0 01-42.85-131.8z" fill="#2aefbe"/><path d="M204.29 230.37a117.9 117.9 0 01-138.58 0L135 135z" fill="#ffdc85"/><path d="M252.88 135a117.7 117.7 0 01-48.59 95.37L135 135l112.14-36.43a117.92 117.92 0 015.74 36.43z" fill="#ffaa58"/></g></g></svg>